<svg xmlns="http://www.w3.org/2000/svg" width="1400" height="1176" viewBox="0 0 1400 1176">
  <defs>
    <style>
      .cls-1 {
        fill: #edc967;
      }

      .cls-1, .cls-2, .cls-3 {
        fill-rule: evenodd;
      }

      .cls-2 {
        fill: #da373e;
      }

      .cls-3 {
        fill: #fff;
      }
    </style>
  </defs>
  <path id="Color_Fill_3" data-name="Color Fill 3" class="cls-1" d="M79,772c14.593,1.387,19.385,21.966,26,32a162,162,0,0,0,38,41c8.855,6.685,14.811,17.506,24,24,35.387,25.01,77.381,39.5,127,51,15.425,3.574,29.717,1.682,45,5h28c11.228,2.577,26.584,1.715,39,5,28.443,7.526,53.556,14.471,75,28,18.839,11.886,59.518,42.56,52,72h-9c-2.188-2.87-6.019-4.98-8-8-4.617-7.04-6.069-15.5-11-22-3.018-3.979-8.908-6-13-9-6.208-4.551-12.271-10.888-19-15-6.315-3.859-13.766-3.963-21-7-10.44-4.383-20.846-10.959-33-14l-28-1c-33.888,0-51.666,5-58,32-4.626,19.72,12.81,41.64,20,51,17.137,22.32,56.218,39.28,86,49,14.05,4.58,30.537,6.21,44,10,22.2,6.24,69.012,7.73,69,34-1,.33-2,0.67-3,1-4.489,2.98-16.423.52-21-1-7.093-2.35-15.392-5.82-23-8-12.952-3.7-27.11-3.72-39-7-17.058-4.7-31.376-5.66-47-11-9.805-3.35-18.935-10.05-28-14l-21-6c-25.211-14.93-58.032-45.2-68-75-6.723-20.1,1.777-42.577,0-60-2.718-1.807-3.544-3.777-7-5-4.258-3.031-9.774-1.41-16-3-11.04-2.819-24.913-4.589-35-9-59.431-25.986-101.994-47.191-138-97-9.277-12.833-20.62-27.836-27-43C76.577,786.242,76.319,777.222,79,772Zm1242,9c-0.17,21.09-12.39,39.092-22,52q-7.005,6.5-14,13c-3.95,5.436-6.02,11.671-10,17-5.07,6.794-15.14,11.9-22,17-7.54,5.6-14.43,13.564-22,19-4.6,3.3-9.25,3.547-15,6-10.13,4.32-19.51,11.663-30,16a436.988,436.988,0,0,1-62,20c-10.02,2.49-21.62-.949-25,8-4.67,6.37,2.24,23.221,4,31,3.47,15.33-2.95,31.65-8,40-3.04,5.03-6.39,11.04-10,16q-7.5,6.495-15,13c-3.99,5.49-6.45,12.22-12,16-4.52,3.08-9.65,3.86-14,7-4.53,3.26-8.11,8.98-13,12-6.6,4.07-15.49,3.83-23,7-15.766,6.65-33.813,15.83-51,21q-22.5,4.005-45,8c-17.342,4.61-52.256,17.39-71,14-0.85-2.45-1.039-6.18-1-10,0.8-1.02.355-.27,1-2,20.141-11.87,44.951-18.97,70-26,15.882-4.46,31.2-4.07,46-9,32.809-10.92,53.2-21.88,78-40,18.12-13.23,40.54-39.02,27-71-8.22-19.423-23.8-22-52-22H987c-33.3,7.5-71.968,25.221-91,47-9.341,10.69-9.1,30.92-28,32q-0.5-1.5-1-3c-4.676-7.72,2.448-20.34,5-25,10.726-19.6,26.326-32.225,45-44,4.34-2.737,8.638-7.3,13-10,13.7-8.468,34.716-13.5,51-18,16.607-4.588,37.2-4.2,54-8l49-1c13.52-3.086,29.29-4.139,43-8,40.45-11.39,76.69-24.682,107-46,8.54-6,15.67-14.67,23-22,12.83-12.832,26.15-25.193,37-40C1301.13,798.279,1304.53,781.288,1321,781ZM688,1057c32.44-.61,47.271,5.49,60,24,3.3,4.8,8.15,10.89,10,17v15c0,30.14-15.538,55.83-38,62-7.389,2.03-18.7,1.38-25,0q-7.5-.495-15-1c-22.81-7.54-36-22.65-36-54,0-7.11-.839-15.3,1-21,4.656-14.43,14.193-28.67,26-36C675.937,1059.94,682.833,1060.23,688,1057Z"/>
  <path id="Color_Fill_2" data-name="Color Fill 2" class="cls-2" d="M696,0c17.315,0.2,36.785,25.13,45,36l18,16a299.831,299.831,0,0,1,27,43c3.4,6.573,11.554,16.4,8,29-2.51,8.9-11.061,15.269-16,22-4.233,5.768-6.722,12.188-11,18-1.911,2.6-5.683,3.77-8,6-29.277.157-34.483-34.819-63-36-5.93,4.742-13.035,7.522-19,12-11.876,8.915-15.9,22.829-37,23-9.578-9.145-15.983-19.144-24-30-3.031-4.1-8.4-7.4-10-13-3.462-12.1,6.546-32.8,10-40,6.611-13.784,17.571-19.865,26-31A300.578,300.578,0,0,1,696,0ZM435,65c23.124-.411,37.619,12.893,53,21,40.1,21.136,64.273,36.619,93,69,9.732,10.97,28.183,27.371,32,43,2.983,12.213-6.01,20.027-10,26-9.453,14.148-21.26,29.18-28,45-8.264,19.4-14.018,39.462-22,59-2.8,6.864-2,16.363-9,19-2.026,1.484-7.974,1.453-10,0-13.312-4.655-24.38-24.825-36-33-4.136-2.91-8.881-4.021-13-7-6.991-5.056-11.087-13.779-17-20-15.951-16.783-36.559-32.027-46-55-2.533-6.163-1.157-12.853-3-20-3.748-14.532-7.365-41.617-3-60,2.518-10.6,5.007-23.948,8-34C428.8,101.879,424.968,75.936,435,65Zm516,1a75.429,75.429,0,0,1,15,1c8.081,14.054,5.082,34.895,10,53,3.963,14.588,6.576,31.713,10,47,3.261,14.56-4.046,39.89-7,51-3.494,13.138-6.089,23.42-13,33l-16,15c-5.113,6.805-9.742,13.424-16,19l-7,5c-4.908,6.441-9.545,15.195-16,20-15.877,11.818-33.238,23.942-47,38a62.538,62.538,0,0,1-13-1c-3.088-6.4-6.882-13.433-9-21l-3-19c-4.748-14.681-10.871-27.987-17-42-8.806-20.134-28.291-33.241-34-56-4.6-18.327,18.976-40.625,26-50,22.516-30.052,55.279-50.143,88-70,12.279-7.452,26.437-12.566,39-19C944.222,68.35,948.307,68.123,951,66ZM694,184c17.631,0.059,22.324,9.325,31,18,14.01,14.007,27.189,26.567,39,43,20.053,27.9,42.586,57.723,52,96q0.5,9,1,18c15.172,65.069-37.362,124.363-68,155-12.283,12.282-25.257,31.99-44,37-5.89,1.574-15.349-.14-19-2-7.616-3.881-29.658-24.855-35-32-9.177-12.275-21.116-23.33-30-36-7.483-10.673-11.963-22.63-19-34-7.443-12.026-15.047-24.028-19-40-2.944-11.894-3.025-46.215,0-58,9.394-36.6,23.474-69.154,43-96,6.42-8.828,16.377-16.228,23-25,7.708-10.21,17.072-18.073,26-27l10-11C688,187.752,691.352,186.542,694,184Z"/>
  <path id="Color_Fill_1" data-name="Color Fill 1" class="cls-3" d="M179,146c53.128-1.115,96.3,8.927,131,27,12.4,6.459,28.951,11.46,34,25,1.875,5.03,1,12.587,1,19v67c2.733,12.2,6.777,27.735,4,42h-1v1c-13.658,1.57-19.982-6.4-29-12-15.461-9.608-32.751-17.585-50-25-11.709-5.034-25.676-5.731-32-16-5.2-8.437-3.662-21.61-7-32-4.936-15.365-13.575-30.43-22-43-5.313-7.926-17.457-21.329-25-27-7.7-5.789-15.856-7.3-16-21C170.044,149.591,175.949,148.146,179,146Zm1011,0c13.9-.438,39.07-2.74,43,7,0.8,1.179.77,1.681,1,4-5.99,6.966-11.51,10.435-19,16-12.64,9.4-23.64,27.468-32,41-5.19,8.407-9.23,19.985-12,30-3.04,11-1.53,21.9-7,30-9.18,13.588-44.93,20.691-61,29-13.09,6.768-33.34,26.126-50,23-0.33-1-.67-2-1-3-2.49-4.033,1.89-42.962,2-52V220c0-6.494-1.01-15.057,1-20,4.87-11.982,16.77-16.171,28-22,21.07-10.939,41.05-17.929,66-26C1159.83,148.5,1181.42,151.486,1190,146ZM387,247h5c14.161,19.2,30.568,36.783,45,56l21,20c17.171,17.171,34.27,34.384,49,54,4.627,6.162,12.344,10.8,17,17,27.3,36.329,50.268,76.809,77,114a493.258,493.258,0,0,0,51,60c8.969,8.968,22.722,15.584,23,33-3.994,2.537-5.826,3.99-13,4-4.843-3.742-12.02-4.533-17-8-17.168-11.953-31.413-27.413-46-42l-16-15c-8.364-11.075-17.758-21.608-27-32l-19-18c-8.261-10.935-18.427-19.426-28-29l-12-13c-8.623-6.516-14.629-15.693-23-22-14.083-10.611-25.622-21.882-38-34-7.309-7.156-17.91-11.7-23-21-13.167-24.069-21.472-53.262-29-82C380.482,275.572,381.526,256.671,387,247Zm620,1h7c0.67,1,1.33,2,2,3,3.28,4.219,1.32,27.668,0,36-4.69,29.715-15.05,56.065-27,79-8.334,15.989-23.045,26.53-37,37l-8,9c-13.192,9.951-23.6,21.937-37,32l-15,16c-11.907,11.906-23.7,22.331-34,36l-15,14c-12.149,16.069-27.834,29.836-42,44-15.509,15.507-42.967,49.731-70,51a19.54,19.54,0,0,0-4-2c-1.9-3.236-2.9-4.357-3-10,27.485-29.155,56.427-58.152,80-91,13.058-18.2,22.91-36.8,35-56,13.622-21.637,29.788-41.745,45-62,6.312-8.4,16.626-14.574,23-23C937.5,320.683,978.479,290.772,1007,248ZM422,671c-41.389,1.135-79.08-19.171-105-35-19.4-11.847-38.025-21.1-56-34-11.783-8.455-21.645-20.46-33-29-9.643-7.253-21.774-14.446-29-24-12.464-16.481-27.133-31.179-39-48-11.975-16.975-20.943-35.835-33-53-7.246-10.316-16.322-19.84-24-30L92,408c-14.219-14.214-28.214-27.209-47-37-7.562-3.941-34.967-12.805-38-19-6.631-7.858,2.744-13.225,8-16,13.842-7.308,28.968-11.207,45-17,61.054-22.061,147.607-8.614,200,13,153.009,63.123,248.448,188.033,358,295,0.031,5.379-1.006,7.275-2,11-60.789,18.843-168.859,3.788-217-16-16.963-6.973-34.494-14.99-49-24-3.364-2.089-14.567-8.541-17-7-0.752,1.073-.6.946-1,3,6.986,6.48,11.358,16.215,19,22,14.064,10.647,27.969,21.251,44,30C404.856,651.379,421.773,656.291,422,671Zm556,1v-8c15.689-8.953,33.04-17.553,48-28,7.8-5.45,14.44-13.353,22-19,8.73-6.524,21.88-16.481,23-30-8.37.555-11.68,5.617-17,9a242.376,242.376,0,0,1-31,17c-41.023,18.059-95.56,31.983-153,32-22.974.007-44.1,0.5-63-4-12.342-2.942-24.369.526-25-14,75.134-73.386,142.473-153.955,229-216,10.12-7.26,19.78-16.8,30-24,37.01-26.071,79.33-48.387,127-63,56.25-17.244,128.49-21.534,184-1,14.15,5.233,43.05,9.6,43,28-13.91,8.9-31.48,14.044-46,23-10.31,6.362-19.44,15.052-29,22-6.94,5.042-14.91,10.234-20,17-10.43,13.852-22.18,26.912-32,41-15.15,21.726-26.6,44.808-42,66-7.01,9.65-17.58,17.584-26,26q-16.5,17-33,34c-19.73,14.886-40.03,28.051-61,42C1075.68,642.17,1026.06,671.279,978,672ZM130,550c15.025-.2,28.2-0.054,38,5,12.459,6.427,19.87,17.158,28,28l8,7c11.926,15.858,26.256,32.081,42,44,55.683,42.156,119.367,76.467,210,84,1.838,2.919,2.739,2.9,3,8-0.8,1.021-.355.274-1,2-26.745,17.042-58.805,28.914-94,38l-28,1c-19.8,4.286-51.647-.256-70-5l-15-2c-26.084-7.427-51.414-13.917-75-24-34.675-14.824-63.878-42.173-93-63-14.588-10.432-32.651-18.923-51-25-9.988-3.308-27.433-2.49-31-12-5.447-9.307,15.388-25.39,20-30,19.7-19.689,43.164-34.32,71-46,7.1-2.98,15.764-4.993,23-7C120.221,551.552,125.994,552.6,130,550Zm1120,0c41.76-.817,80.39,16.68,105,34,5.04,3.548,9.11,9.337,14,13,12.12,9.087,30.99,19.452,31,40-2.73,1.686-4.97,4.689-8,6l-27,7c-9.2,3.785-18.38,9.506-27,14-4.71,2.453-9.5,3.213-14,6-8.51,5.275-15.97,13.2-24,19-15.82,11.415-32.35,22.824-49,33-38.9,23.778-84.92,33.607-137,45h-34c-43.68.009-70.65-7.578-100-20-10.852-4.594-31.99-8.9-36-20-0.961-1.418-.976-3.273-1-6,12.673-7.307,33.382-5.583,49-10,34.13-9.655,68.72-15.342,96-32,24.04-14.68,47.9-30.308,70-47q6.495-7,13-14c9.67-9.675,20.85-18.909,29-30,7.02-9.56,14.44-20.112,24-27C1231.36,555.7,1242.56,554.989,1250,550ZM673,666h54c69.3,15.488,141.42,24.2,177,73,8.818,12.093,18.073,22.447,23,39,8.818,29.629-6.925,67.382-18,84-8.707,13.065-18.25,22.253-29,33l-9,10c-29.461,22.122-63.833,37.171-105,48-18.227,4.794-37.874,5-60,5-86.858.014-147.689-23.678-191-67-20.5-20.509-54.561-62.483-42-108,18.379-66.6,74.538-85.217,139-106Z"/>
</svg>
